<svg width="53" height="20" viewBox="0 0 53 20" fill="none" xmlns="http://www.w3.org/2000/svg">
<path d="M9.64645 7.02024L5.85355 10.8131C5.53857 11.1281 5.76165 11.6667 6.20711 11.6667H13.7929C14.2383 11.6667 14.4614 11.1281 14.1464 10.8131L10.3536 7.02024C10.1583 6.82498 9.84171 6.82498 9.64645 7.02024Z" fill="#FF3B30"/>
<path d="M21.2045 16V14.9773L25.0455 10.7727C25.4962 10.2803 25.8674 9.85227 26.1591 9.48864C26.4508 9.12121 26.6667 8.77652 26.8068 8.45455C26.9508 8.12879 27.0227 7.78788 27.0227 7.43182C27.0227 7.02273 26.9242 6.66856 26.7273 6.36932C26.5341 6.07008 26.2689 5.83901 25.9318 5.67614C25.5947 5.51326 25.2159 5.43182 24.7955 5.43182C24.3485 5.43182 23.9583 5.52462 23.625 5.71023C23.2955 5.89205 23.0398 6.14773 22.858 6.47727C22.6799 6.80682 22.5909 7.19318 22.5909 7.63636H21.25C21.25 6.95455 21.4072 6.35606 21.7216 5.84091C22.036 5.32576 22.464 4.92424 23.0057 4.63636C23.5511 4.34848 24.1629 4.20455 24.8409 4.20455C25.5227 4.20455 26.1269 4.34848 26.6534 4.63636C27.1799 4.92424 27.5928 5.3125 27.892 5.80114C28.1913 6.28977 28.3409 6.83333 28.3409 7.43182C28.3409 7.85985 28.2633 8.27841 28.108 8.6875C27.9564 9.0928 27.6913 9.54545 27.3125 10.0455C26.9375 10.5417 26.4167 11.1477 25.75 11.8636L23.1364 14.6591V14.75H28.5455V16H21.2045ZM34.8239 16.1591C34.0739 16.1591 33.4053 16.0303 32.8182 15.7727C32.2348 15.5152 31.7708 15.1572 31.4261 14.6989C31.0852 14.2367 30.8996 13.7008 30.8693 13.0909H32.3011C32.3314 13.4659 32.4602 13.7898 32.6875 14.0625C32.9148 14.3314 33.2121 14.5398 33.5795 14.6875C33.947 14.8352 34.3542 14.9091 34.8011 14.9091C35.3011 14.9091 35.7443 14.822 36.1307 14.6477C36.517 14.4735 36.8201 14.2311 37.0398 13.9205C37.2595 13.6098 37.3693 13.25 37.3693 12.8409C37.3693 12.4129 37.2633 12.036 37.0511 11.7102C36.839 11.3807 36.5284 11.1231 36.1193 10.9375C35.7102 10.7519 35.2102 10.6591 34.6193 10.6591H33.6875V9.40909H34.6193C35.0814 9.40909 35.4867 9.32576 35.8352 9.15909C36.1875 8.99242 36.4621 8.75758 36.6591 8.45455C36.8598 8.15152 36.9602 7.79545 36.9602 7.38636C36.9602 6.99242 36.8731 6.64962 36.6989 6.35795C36.5246 6.06629 36.2784 5.83901 35.9602 5.67614C35.6458 5.51326 35.2746 5.43182 34.8466 5.43182C34.4451 5.43182 34.0663 5.50568 33.7102 5.65341C33.358 5.79735 33.0701 6.00758 32.8466 6.28409C32.6231 6.55682 32.5019 6.88636 32.483 7.27273H31.1193C31.142 6.66288 31.3258 6.12879 31.6705 5.67045C32.0152 5.20833 32.4659 4.84848 33.0227 4.59091C33.5833 4.33333 34.1989 4.20455 34.8693 4.20455C35.589 4.20455 36.2064 4.35038 36.7216 4.64205C37.2367 4.92992 37.6326 5.31061 37.9091 5.78409C38.1856 6.25758 38.3239 6.76894 38.3239 7.31818C38.3239 7.97348 38.1515 8.5322 37.8068 8.99432C37.4659 9.45644 37.0019 9.77652 36.4148 9.95455V10.0455C37.1496 10.1667 37.7235 10.4792 38.1364 10.983C38.5492 11.483 38.7557 12.1023 38.7557 12.8409C38.7557 13.4735 38.5833 14.0417 38.2386 14.5455C37.8977 15.0455 37.4318 15.4394 36.8409 15.7273C36.25 16.0152 35.5777 16.1591 34.8239 16.1591ZM47.0114 13.8182V13.2045C47.0114 12.7803 47.0985 12.392 47.2727 12.0398C47.4508 11.6837 47.7083 11.3996 48.0455 11.1875C48.3864 10.9716 48.7992 10.8636 49.2841 10.8636C49.7765 10.8636 50.1894 10.9716 50.5227 11.1875C50.8561 11.3996 51.108 11.6837 51.2784 12.0398C51.4489 12.392 51.5341 12.7803 51.5341 13.2045V13.8182C51.5341 14.2424 51.447 14.6326 51.2727 14.9886C51.1023 15.3409 50.8485 15.625 50.5114 15.8409C50.178 16.053 49.7689 16.1591 49.2841 16.1591C48.7917 16.1591 48.3769 16.053 48.0398 15.8409C47.7027 15.625 47.447 15.3409 47.2727 14.9886C47.0985 14.6326 47.0114 14.2424 47.0114 13.8182ZM48.1705 13.2045V13.8182C48.1705 14.1705 48.2538 14.4867 48.4205 14.767C48.5871 15.0436 48.875 15.1818 49.2841 15.1818C49.6818 15.1818 49.9621 15.0436 50.125 14.767C50.2917 14.4867 50.375 14.1705 50.375 13.8182V13.2045C50.375 12.8523 50.2955 12.5379 50.1364 12.2614C49.9773 11.9811 49.6932 11.8409 49.2841 11.8409C48.8864 11.8409 48.6004 11.9811 48.4261 12.2614C48.2557 12.5379 48.1705 12.8523 48.1705 13.2045ZM41.2159 7.15909V6.54545C41.2159 6.12121 41.303 5.73295 41.4773 5.38068C41.6553 5.02462 41.9129 4.74053 42.25 4.52841C42.5909 4.3125 43.0038 4.20455 43.4886 4.20455C43.9811 4.20455 44.3939 4.3125 44.7273 4.52841C45.0606 4.74053 45.3125 5.02462 45.483 5.38068C45.6534 5.73295 45.7386 6.12121 45.7386 6.54545V7.15909C45.7386 7.58333 45.6515 7.97348 45.4773 8.32955C45.3068 8.68182 45.053 8.96591 44.7159 9.18182C44.3826 9.39394 43.9735 9.5 43.4886 9.5C42.9962 9.5 42.5814 9.39394 42.2443 9.18182C41.9072 8.96591 41.6515 8.68182 41.4773 8.32955C41.303 7.97348 41.2159 7.58333 41.2159 7.15909ZM42.375 6.54545V7.15909C42.375 7.51136 42.4583 7.82765 42.625 8.10795C42.7917 8.38447 43.0795 8.52273 43.4886 8.52273C43.8864 8.52273 44.1667 8.38447 44.3295 8.10795C44.4962 7.82765 44.5795 7.51136 44.5795 7.15909V6.54545C44.5795 6.19318 44.5 5.87879 44.3409 5.60227C44.1818 5.32197 43.8977 5.18182 43.4886 5.18182C43.0909 5.18182 42.8049 5.32197 42.6307 5.60227C42.4602 5.87879 42.375 6.19318 42.375 6.54545ZM41.6477 16L49.6477 4.36364H50.9432L42.9432 16H41.6477Z" fill="#FF3B30"/>
</svg>
