<svg width="51" height="20" viewBox="0 0 51 20" fill="none" xmlns="http://www.w3.org/2000/svg">
<path d="M9.64645 12.9798L5.85355 9.1869C5.53857 8.87191 5.76165 8.33334 6.20711 8.33334H13.7929C14.2383 8.33334 14.4614 8.87191 14.1464 9.1869L10.3536 12.9798C10.1583 13.1751 9.84171 13.1751 9.64645 12.9798Z" fill="#30D170"/>
<path d="M25.2955 4.36364V16H23.8864V5.84091H23.8182L20.9773 7.72727V6.29545L23.8864 4.36364H25.2955ZM32.5739 16.1591C31.8239 16.1591 31.1553 16.0303 30.5682 15.7727C29.9848 15.5152 29.5208 15.1572 29.1761 14.6989C28.8352 14.2367 28.6496 13.7008 28.6193 13.0909H30.0511C30.0814 13.4659 30.2102 13.7898 30.4375 14.0625C30.6648 14.3314 30.9621 14.5398 31.3295 14.6875C31.697 14.8352 32.1042 14.9091 32.5511 14.9091C33.0511 14.9091 33.4943 14.822 33.8807 14.6477C34.267 14.4735 34.5701 14.2311 34.7898 13.9205C35.0095 13.6098 35.1193 13.25 35.1193 12.8409C35.1193 12.4129 35.0133 12.036 34.8011 11.7102C34.589 11.3807 34.2784 11.1231 33.8693 10.9375C33.4602 10.7519 32.9602 10.6591 32.3693 10.6591H31.4375V9.40909H32.3693C32.8314 9.40909 33.2367 9.32576 33.5852 9.15909C33.9375 8.99242 34.2121 8.75758 34.4091 8.45455C34.6098 8.15152 34.7102 7.79545 34.7102 7.38636C34.7102 6.99242 34.6231 6.64962 34.4489 6.35795C34.2746 6.06629 34.0284 5.83901 33.7102 5.67614C33.3958 5.51326 33.0246 5.43182 32.5966 5.43182C32.1951 5.43182 31.8163 5.50568 31.4602 5.65341C31.108 5.79735 30.8201 6.00758 30.5966 6.28409C30.3731 6.55682 30.2519 6.88636 30.233 7.27273H28.8693C28.892 6.66288 29.0758 6.12879 29.4205 5.67045C29.7652 5.20833 30.2159 4.84848 30.7727 4.59091C31.3333 4.33333 31.9489 4.20455 32.6193 4.20455C33.339 4.20455 33.9564 4.35038 34.4716 4.64205C34.9867 4.92992 35.3826 5.31061 35.6591 5.78409C35.9356 6.25758 36.0739 6.76894 36.0739 7.31818C36.0739 7.97348 35.9015 8.5322 35.5568 8.99432C35.2159 9.45644 34.7519 9.77652 34.1648 9.95455V10.0455C34.8996 10.1667 35.4735 10.4792 35.8864 10.983C36.2992 11.483 36.5057 12.1023 36.5057 12.8409C36.5057 13.4735 36.3333 14.0417 35.9886 14.5455C35.6477 15.0455 35.1818 15.4394 34.5909 15.7273C34 16.0152 33.3277 16.1591 32.5739 16.1591ZM44.7614 13.8182V13.2045C44.7614 12.7803 44.8485 12.392 45.0227 12.0398C45.2008 11.6837 45.4583 11.3996 45.7955 11.1875C46.1364 10.9716 46.5492 10.8636 47.0341 10.8636C47.5265 10.8636 47.9394 10.9716 48.2727 11.1875C48.6061 11.3996 48.858 11.6837 49.0284 12.0398C49.1989 12.392 49.2841 12.7803 49.2841 13.2045V13.8182C49.2841 14.2424 49.197 14.6326 49.0227 14.9886C48.8523 15.3409 48.5985 15.625 48.2614 15.8409C47.928 16.053 47.5189 16.1591 47.0341 16.1591C46.5417 16.1591 46.1269 16.053 45.7898 15.8409C45.4527 15.625 45.197 15.3409 45.0227 14.9886C44.8485 14.6326 44.7614 14.2424 44.7614 13.8182ZM45.9205 13.2045V13.8182C45.9205 14.1705 46.0038 14.4867 46.1705 14.767C46.3371 15.0436 46.625 15.1818 47.0341 15.1818C47.4318 15.1818 47.7121 15.0436 47.875 14.767C48.0417 14.4867 48.125 14.1705 48.125 13.8182V13.2045C48.125 12.8523 48.0455 12.5379 47.8864 12.2614C47.7273 11.9811 47.4432 11.8409 47.0341 11.8409C46.6364 11.8409 46.3504 11.9811 46.1761 12.2614C46.0057 12.5379 45.9205 12.8523 45.9205 13.2045ZM38.9659 7.15909V6.54545C38.9659 6.12121 39.053 5.73295 39.2273 5.38068C39.4053 5.02462 39.6629 4.74053 40 4.52841C40.3409 4.3125 40.7538 4.20455 41.2386 4.20455C41.7311 4.20455 42.1439 4.3125 42.4773 4.52841C42.8106 4.74053 43.0625 5.02462 43.233 5.38068C43.4034 5.73295 43.4886 6.12121 43.4886 6.54545V7.15909C43.4886 7.58333 43.4015 7.97348 43.2273 8.32955C43.0568 8.68182 42.803 8.96591 42.4659 9.18182C42.1326 9.39394 41.7235 9.5 41.2386 9.5C40.7462 9.5 40.3314 9.39394 39.9943 9.18182C39.6572 8.96591 39.4015 8.68182 39.2273 8.32955C39.053 7.97348 38.9659 7.58333 38.9659 7.15909ZM40.125 6.54545V7.15909C40.125 7.51136 40.2083 7.82765 40.375 8.10795C40.5417 8.38447 40.8295 8.52273 41.2386 8.52273C41.6364 8.52273 41.9167 8.38447 42.0795 8.10795C42.2462 7.82765 42.3295 7.51136 42.3295 7.15909V6.54545C42.3295 6.19318 42.25 5.87879 42.0909 5.60227C41.9318 5.32197 41.6477 5.18182 41.2386 5.18182C40.8409 5.18182 40.5549 5.32197 40.3807 5.60227C40.2102 5.87879 40.125 6.19318 40.125 6.54545ZM39.3977 16L47.3977 4.36364H48.6932L40.6932 16H39.3977Z" fill="#30D170"/>
</svg>
