<svg width="25" height="24" viewBox="0 0 25 24" fill="none" xmlns="http://www.w3.org/2000/svg">
<path d="M12.3449 10.5364L12.3936 10.5381L12.4306 10.5307C12.432 10.5306 12.4337 10.5305 12.4358 10.5304C12.4482 10.5297 12.4663 10.5292 12.4896 10.5292C12.5362 10.5292 12.593 10.5312 12.6476 10.5354L12.6731 10.5374L12.6987 10.5362C14.8825 10.436 16.5951 8.64183 16.6062 6.4421V6.44C16.6062 4.17988 14.7597 2.33333 12.4996 2.33333C10.2395 2.33333 8.3929 4.17988 8.3929 6.44C8.3929 8.66463 10.1309 10.4585 12.3449 10.5364ZM12.6596 11.2033H12.6594H12.6592H12.659H12.6589H12.6587H12.6585H12.6583H12.6582H12.658H12.6578H12.6577H12.6575H12.6573H12.6571H12.657H12.6568H12.6566H12.6564H12.6563H12.6561H12.6559H12.6558H12.6556H12.6554H12.6552H12.6551H12.6549H12.6547H12.6546H12.6544H12.6542H12.6541H12.6539H12.6537H12.6536H12.6534H12.6532H12.653H12.6529H12.6527H12.6525H12.6524H12.6522H12.652H12.6519H12.6517H12.6515H12.6514H12.6512H12.651H12.6509H12.6507H12.6506H12.6504H12.6502H12.6501H12.6499H12.6497H12.6496H12.6494H12.6492H12.6491H12.6489H12.6487H12.6486H12.6484H12.6483H12.6481H12.6479H12.6478H12.6476H12.6475H12.6473H12.6471H12.647H12.6468H12.6466H12.6465H12.6463H12.6462H12.646H12.6458H12.6457H12.6455H12.6454H12.6452H12.645H12.6449H12.6447H12.6446H12.6444H12.6443H12.6441H12.6439H12.6438H12.6436H12.6435H12.6433H12.6431H12.643H12.6428H12.6427H12.6425H12.6424H12.6422H12.642H12.6419H12.6417H12.6416H12.6414H12.6413H12.6411H12.641H12.6408H12.6406H12.6405H12.6403H12.6402H12.64H12.6399H12.6397H12.6396H12.6394H12.6392H12.6391H12.6389H12.6388H12.6386H12.6385H12.6383H12.6382H12.638H12.6379H12.6377H12.6376H12.6374H12.6373H12.6371H12.6369H12.6368H12.6366H12.6365H12.6363H12.6362H12.636H12.6359H12.6357H12.6356H12.6354H12.6353H12.6351H12.635H12.6348H12.6347H12.6345H12.6344H12.6342H12.6341H12.6339H12.6338H12.6336H12.6335H12.6333H12.6332H12.633H12.6329H12.6327H12.6326H12.6324H12.6323H12.6321H12.632H12.6318H12.6317H12.6315H12.6314H12.6312H12.6311H12.6309H12.6308H12.6306H12.6305H12.6303H12.6302H12.63H12.6299H12.6297H12.6296H12.6294H12.6293H12.6291H12.629H12.6288H12.6287H12.6285H12.6284H12.6282H12.6281H12.6279H12.6278H12.6277H12.6275H12.6274H12.6272H12.6271H12.6269H12.6268H12.6266H12.6265H12.6263H12.6262H12.626H12.6259H12.6257H12.6256H12.6254H12.6253H12.6251H12.625H12.6249H12.6247H12.6246H12.6244H12.6243H12.6241H12.624H12.6238H12.6237H12.6235H12.6234H12.6232H12.6231H12.6229H12.6228H12.6226H12.6225H12.6224H12.6222H12.6221H12.6219H12.6218H12.6216H12.6215H12.6213H12.6212H12.621H12.6209H12.6207H12.6206H12.6204H12.6203H12.6202H12.62H12.6199H12.6197H12.6196H12.6194H12.6193H12.6191H12.619H12.6188H12.6187H12.6185H12.6184H12.6183H12.6181H12.618H12.6178H12.6177H12.6175H12.6174H12.6172H12.6171H12.6169H12.6168H12.6166H12.6165H12.6163H12.6162H12.6161H12.6159H12.6158H12.6156H12.6155H12.6153H12.6152H12.615H12.6149H12.6147H12.6146H12.6144H12.6143H12.6141H12.614H12.6138H12.6137H12.6136H12.6134H12.6133H12.6131H12.613H12.6128H12.6127H12.6125H12.6124H12.6122H12.6122C12.5344 11.1931 12.4526 11.1939 12.3785 11.2024C9.71791 11.1026 7.72624 9.01141 7.72624 6.44C7.72624 3.81012 9.86969 1.66667 12.4996 1.66667C15.1292 1.66667 17.2725 3.80975 17.2729 6.43932C17.2633 9.02504 15.2425 11.1173 12.6827 11.2033H12.6827H12.6826H12.6825H12.6825H12.6824H12.6824H12.6823H12.6822H12.6822H12.6821H12.6821H12.682H12.682H12.6819H12.6818H12.6818H12.6817H12.6817H12.6816H12.6815H12.6815H12.6814H12.6814H12.6813H12.6812H12.6812H12.6811H12.6811H12.681H12.681H12.6809H12.6808H12.6808H12.6807H12.6807H12.6806H12.6805H12.6805H12.6804H12.6804H12.6803H12.6803H12.6802H12.6801H12.6801H12.68H12.68H12.6799H12.6798H12.6798H12.6797H12.6797H12.6796H12.6796H12.6795H12.6794H12.6794H12.6793H12.6793H12.6792H12.6791H12.6791H12.679H12.679H12.6789H12.6788H12.6788H12.6787H12.6787H12.6786H12.6786H12.6785H12.6784H12.6784H12.6783H12.6783H12.6782H12.6781H12.6781H12.678H12.678H12.6779H12.6779H12.6778H12.6777H12.6777H12.6776H12.6776H12.6775H12.6774H12.6774H12.6773H12.6773H12.6772H12.6771H12.6771H12.677H12.677H12.6769H12.6769H12.6768H12.6767H12.6767H12.6766H12.6766H12.6765H12.6764H12.6764H12.6763H12.6763H12.6762H12.6762H12.6761H12.676H12.676H12.6759H12.6759H12.6758H12.6757H12.6757H12.6756H12.6756H12.6755H12.6754H12.6754H12.6753H12.6753H12.6752H12.6752H12.6751H12.675H12.675H12.6749H12.6749H12.6748H12.6747H12.6747H12.6746H12.6746H12.6745H12.6745H12.6744H12.6743H12.6743H12.6742H12.6742H12.6741H12.674H12.674H12.6739H12.6739H12.6738H12.6737H12.6737H12.6736H12.6736H12.6735H12.6735H12.6734H12.6733H12.6733H12.6732H12.6732H12.6731H12.673H12.673H12.6729H12.6729H12.6728H12.6728H12.6727H12.6726H12.6726H12.6725H12.6725H12.6724H12.6723H12.6723H12.6722H12.6722H12.6721H12.6721H12.672H12.6719H12.6719H12.6718H12.6718H12.6717H12.6716H12.6716H12.6715H12.6715H12.6714H12.6713H12.6713H12.6712H12.6712H12.6711H12.6711H12.671H12.6709H12.6709H12.6708H12.6708H12.6707H12.6706H12.6706H12.6705H12.6705H12.6704H12.6704H12.6703H12.6702H12.6702H12.6701H12.6701H12.67H12.6699H12.6699H12.6698H12.6698H12.6697H12.6696H12.6696H12.6695H12.6695H12.6694H12.6694H12.6693H12.6692H12.6692H12.6691H12.6691H12.669H12.6689H12.6689H12.6688H12.6688H12.6687H12.6687H12.6686H12.6685H12.6685H12.6684H12.6684H12.6683H12.6682H12.6682H12.6681H12.6681H12.668H12.6679H12.6679H12.6678H12.6678H12.6677H12.6677H12.6676H12.6675H12.6675H12.6674H12.6674H12.6673H12.6672H12.6672H12.6671H12.6671H12.667H12.667H12.6669H12.6668H12.6668H12.6667H12.6667H12.6666H12.6665H12.6665H12.6664H12.6664H12.6663H12.6662H12.6662H12.6661H12.6661H12.666H12.666H12.6659H12.6658H12.6658H12.6657H12.6657H12.6656H12.6655H12.6655H12.6654H12.6654H12.6653H12.6653H12.6652H12.6651H12.6651H12.665H12.665H12.6649H12.6648H12.6648H12.6647H12.6647H12.6646H12.6646H12.6645H12.6644H12.6644H12.6643H12.6643H12.6642H12.6641H12.6641H12.664H12.664H12.6639H12.6638H12.6638H12.6637H12.6637H12.6636H12.6636H12.6635H12.6634H12.6634H12.6633H12.6633H12.6632H12.6631H12.6631H12.663H12.663H12.6629H12.6629H12.6628H12.6627H12.6627H12.6626H12.6626H12.6625H12.6624H12.6624H12.6623H12.6623H12.6622H12.6621H12.6621H12.662H12.662H12.6619H12.6619H12.6618H12.6617H12.6617H12.6616H12.6616H12.6615H12.6614H12.6614H12.6613H12.6613H12.6612H12.6612H12.6611H12.661H12.661H12.6609H12.6609H12.6608H12.6607H12.6607H12.6606H12.6606H12.6605H12.6604H12.6604H12.6603H12.6603H12.6602H12.6602H12.6601H12.66H12.66H12.6599H12.6599H12.6598H12.6597H12.6597H12.6596H12.6596Z" fill="#7E8794" stroke="#7E8794" stroke-width="0.833333"/>
<path d="M12.6696 22.55C10.7096 22.55 8.73961 22.05 7.24961 21.05C5.85961 20.13 5.09961 18.87 5.09961 17.5C5.09961 16.13 5.85961 14.86 7.24961 13.93C10.2496 11.94 15.1096 11.94 18.0896 13.93C19.4696 14.85 20.2396 16.11 20.2396 17.48C20.2396 18.85 19.4796 20.12 18.0896 21.05C16.5896 22.05 14.6296 22.55 12.6696 22.55ZM8.07961 15.19C7.11961 15.83 6.59961 16.65 6.59961 17.51C6.59961 18.36 7.12961 19.18 8.07961 19.81C10.5696 21.48 14.7696 21.48 17.2596 19.81C18.2196 19.17 18.7396 18.35 18.7396 17.49C18.7396 16.64 18.2096 15.82 17.2596 15.19C14.7696 13.53 10.5696 13.53 8.07961 15.19Z" fill="#7E8794"/>
</svg>
