<svg width="25" height="24" viewBox="0 0 25 24" fill="none" xmlns="http://www.w3.org/2000/svg">
<path d="M12.5 21.65C12.19 21.65 11.89 21.61 11.64 21.52C7.82 20.21 1.75 15.56 1.75 8.68998C1.75 5.18998 4.58 2.34998 8.06 2.34998C9.75 2.34998 11.33 3.00998 12.5 4.18998C13.67 3.00998 15.25 2.34998 16.94 2.34998C20.42 2.34998 23.25 5.19998 23.25 8.68998C23.25 15.57 17.18 20.21 13.36 21.52C13.11 21.61 12.81 21.65 12.5 21.65ZM8.06 3.84998C5.41 3.84998 3.25 6.01998 3.25 8.68998C3.25 15.52 9.82 19.32 12.13 20.11C12.31 20.17 12.7 20.17 12.88 20.11C15.18 19.32 21.76 15.53 21.76 8.68998C21.76 6.01998 19.6 3.84998 16.95 3.84998C15.43 3.84998 14.02 4.55998 13.11 5.78998C12.83 6.16998 12.19 6.16998 11.91 5.78998C10.98 4.54998 9.58 3.84998 8.06 3.84998Z" fill="#7E8794"/>
</svg>
