<svg width="25" height="24" viewBox="0 0 25 24" fill="none" xmlns="http://www.w3.org/2000/svg">
<path fill-rule="evenodd" clip-rule="evenodd" d="M12.5 14.25C12.9142 14.25 13.25 14.5858 13.25 15V18C13.25 18.4142 12.9142 18.75 12.5 18.75C12.0858 18.75 11.75 18.4142 11.75 18V15C11.75 14.5858 12.0858 14.25 12.5 14.25Z" fill="#7E8794"/>
<path fill-rule="evenodd" clip-rule="evenodd" d="M14.8993 2.24473C14.8996 2.24496 14.8999 2.24519 14.9002 2.24542L21.8307 7.78584C22.3443 8.19942 22.7292 8.80511 22.9648 9.42267C23.2005 10.0404 23.3169 10.749 23.2105 11.4009L23.21 11.4036L21.88 19.3636L21.8797 19.3659C21.5785 21.1351 19.8972 22.56 18.1003 22.56H6.9003C5.0941 22.56 3.42174 21.1456 3.12079 19.365L1.79134 11.4082C1.79119 11.4074 1.79105 11.4065 1.7909 11.4057C1.67808 10.7518 1.79221 10.0415 2.02832 9.42267C2.26457 8.80341 2.65288 8.19728 3.17239 7.78387C3.1728 7.78354 3.17321 7.78322 3.17362 7.78289L10.1011 2.2349C11.4365 1.16439 13.5564 1.16615 14.8993 2.24473ZM13.9604 3.41459C13.1634 2.77396 11.8239 2.77615 11.0395 3.40512L4.10699 8.95713C3.84711 9.1637 3.59584 9.5221 3.42978 9.95735C3.26369 10.3927 3.21281 10.8264 3.26926 11.1518L3.27006 11.1564L4.59981 19.115C4.59978 19.1148 4.59984 19.1152 4.59981 19.115C4.77913 20.1741 5.82669 21.06 6.9003 21.06H18.1003C19.163 21.06 20.2213 20.1656 20.4007 19.1153C20.4008 19.1149 20.4009 19.1145 20.4009 19.1142L21.7301 11.1592C21.7302 11.1587 21.7302 11.1583 21.7303 11.1578C21.7835 10.8298 21.7299 10.394 21.5633 9.95735C21.3966 9.52041 21.1469 9.16143 20.8908 8.95489C20.8905 8.95465 20.8902 8.95442 20.8899 8.95418L13.962 3.41582L13.9604 3.41459Z" fill="#7E8794"/>
</svg>
