<svg width="36" height="29" viewBox="0 0 36 29" fill="none" xmlns="http://www.w3.org/2000/svg">
<path d="M12.5 26.65C12.19 26.65 11.89 26.61 11.64 26.52C7.82 25.21 1.75 20.56 1.75 13.69C1.75 10.19 4.58 7.34998 8.06 7.34998C9.75 7.34998 11.33 8.00998 12.5 9.18998C13.67 8.00998 15.25 7.34998 16.94 7.34998C20.42 7.34998 23.25 10.2 23.25 13.69C23.25 20.57 17.18 25.21 13.36 26.52C13.11 26.61 12.81 26.65 12.5 26.65ZM8.06 8.84998C5.41 8.84998 3.25 11.02 3.25 13.69C3.25 20.52 9.82 24.32 12.13 25.11C12.31 25.17 12.7 25.17 12.88 25.11C15.18 24.32 21.76 20.53 21.76 13.69C21.76 11.02 19.6 8.84998 16.95 8.84998C15.43 8.84998 14.02 9.55998 13.11 10.79C12.83 11.17 12.19 11.17 11.91 10.79C10.98 9.54998 9.58 8.84998 8.06 8.84998Z" fill="#7E8794"/>
<rect x="17.75" y="1.25" width="17.5" height="17.5" rx="8.75" fill="#FF4D4D"/>
<path d="M27.6825 5.27273V14H26.6257V6.38068H26.5746L24.4439 7.79545V6.72159L26.6257 5.27273H27.6825Z" fill="white"/>
<rect x="17.75" y="1.25" width="17.5" height="17.5" rx="8.75" stroke="#FDFDFD" stroke-width="1.5"/>
</svg>
