<svg width="25" height="24" viewBox="0 0 25 24" fill="none" xmlns="http://www.w3.org/2000/svg">
<path fill-rule="evenodd" clip-rule="evenodd" d="M11.5 2.75C6.94421 2.75 3.25 6.44421 3.25 11C3.25 15.5558 6.94421 19.25 11.5 19.25C16.0558 19.25 19.75 15.5558 19.75 11C19.75 10.5858 20.0858 10.25 20.5 10.25C20.9142 10.25 21.25 10.5858 21.25 11C21.25 16.3842 16.8842 20.75 11.5 20.75C6.11579 20.75 1.75 16.3842 1.75 11C1.75 5.61579 6.11579 1.25 11.5 1.25C11.9142 1.25 12.25 1.58579 12.25 2C12.25 2.41421 11.9142 2.75 11.5 2.75Z" fill="#7E8794"/>
<path fill-rule="evenodd" clip-rule="evenodd" d="M20.8534 17.9698C20.0839 17.964 19.3915 18.2675 18.9691 18.854C18.5471 19.4399 18.4766 20.1941 18.718 20.925L18.7182 20.9256C19.0202 21.8372 19.61 22.6168 20.5155 22.7382C21.421 22.8595 22.1948 22.2628 22.7249 21.4648L22.725 21.4647C23.2286 20.7063 23.4422 19.8156 23.0326 19.0508C22.6232 18.2863 21.7646 17.9706 20.8534 17.9698ZM20.1422 20.4543C20.3703 21.1425 20.6504 21.2428 20.7148 21.2515C20.7794 21.2601 21.0755 21.2368 21.4754 20.6349M20.1422 20.4543C20.0238 20.0954 20.0933 19.8597 20.1862 19.7306C20.2782 19.603 20.4744 19.4665 20.8436 19.4698L20.8436 19.4698H20.8502C21.4778 19.4698 21.6676 19.6792 21.7103 19.7589C21.7532 19.839 21.8217 20.1133 21.4754 20.6348" fill="#7E8794"/>
<path fill-rule="evenodd" clip-rule="evenodd" d="M13.75 5C13.75 4.58579 14.0858 4.25 14.5 4.25H20.5C20.9142 4.25 21.25 4.58579 21.25 5C21.25 5.41421 20.9142 5.75 20.5 5.75H14.5C14.0858 5.75 13.75 5.41421 13.75 5Z" fill="#7E8794"/>
<path fill-rule="evenodd" clip-rule="evenodd" d="M13.75 8C13.75 7.58579 14.0858 7.25 14.5 7.25H17.5C17.9142 7.25 18.25 7.58579 18.25 8C18.25 8.41421 17.9142 8.75 17.5 8.75H14.5C14.0858 8.75 13.75 8.41421 13.75 8Z" fill="#7E8794"/>
</svg>
