<svg width="200" height="24" viewBox="0 0 200 24" fill="none" xmlns="http://www.w3.org/2000/svg">
<path fill-rule="evenodd" clip-rule="evenodd" d="M15.0732 1.99963H8.93763C3.33336 1.99963 2 3.33299 2 8.92685V15.0624C2 20.6667 3.32294 22 8.92721 22H15.0627C20.667 22 22.0004 20.6771 22.0004 15.0728V8.93726C22.0004 3.33299 20.6774 1.99963 15.0732 1.99963ZM17.9378 8.35419C18.3753 8.35419 18.4691 8.57294 18.3753 8.88545C18.2189 9.64003 16.8106 11.679 16.4843 12.1514C16.4412 12.2138 16.417 12.2489 16.417 12.2501C16.2607 12.4897 16.1982 12.6147 16.417 12.8959C16.4915 13.0077 16.6611 13.1738 16.855 13.3637C17.0408 13.5456 17.2488 13.7493 17.417 13.948C18.042 14.6564 18.5107 15.2502 18.6462 15.6564C18.7712 16.0627 18.5628 16.271 18.1462 16.271H16.6878C16.3009 16.271 16.1033 16.051 15.679 15.5788C15.4979 15.3772 15.2755 15.1296 14.9794 14.8335C14.1148 14.0001 13.7502 13.896 13.5315 13.896C13.2294 13.896 13.1461 13.9793 13.1461 14.396V15.7085C13.1461 16.0627 13.0315 16.271 12.1044 16.271C10.5627 16.271 8.86473 15.3335 7.65637 13.6043C5.84384 11.073 5.35425 9.15629 5.35425 8.77086C5.35425 8.55211 5.43758 8.35419 5.85426 8.35419H7.31262C7.68762 8.35419 7.82304 8.52086 7.96888 8.90628C8.67723 10.9897 9.88558 12.8022 10.3752 12.8022C10.5627 12.8022 10.646 12.7189 10.646 12.2501V10.1042C10.6076 9.50232 10.396 9.23892 10.2386 9.04304C10.14 8.92025 10.0627 8.82399 10.0627 8.68753C10.0627 8.53127 10.2085 8.35419 10.4377 8.35419H12.7294C13.0419 8.35419 13.1461 8.51044 13.1461 8.88545V11.7813C13.1461 12.0938 13.2815 12.198 13.3752 12.198C13.5627 12.198 13.7086 12.0938 14.0523 11.7501C15.1044 10.5834 15.844 8.77086 15.844 8.77086C15.9378 8.55211 16.1045 8.35419 16.4795 8.35419H17.9378Z" fill="#0F1113"/>
<path d="M62.7584 6.27729C62.6183 6.20752 62.4818 6.13104 62.3496 6.04813C61.9651 5.80333 61.6125 5.51489 61.2995 5.18901C60.5165 4.32613 60.224 3.45076 60.1163 2.83787H60.1206C60.0306 2.32915 60.0678 2 60.0734 2H56.5067V15.2818C56.5067 15.4602 56.5067 15.6364 56.4989 15.8106C56.4989 15.8322 56.4967 15.8522 56.4954 15.8756C56.4954 15.8851 56.4954 15.8951 56.4932 15.9051C56.4932 15.9076 56.4932 15.9101 56.4932 15.9126C56.4556 16.3892 56.297 16.8495 56.0313 17.2532C55.7656 17.6568 55.401 17.9914 54.9695 18.2275C54.5197 18.4739 54.0111 18.6032 53.4937 18.6025C51.8319 18.6025 50.485 17.2976 50.485 15.686C50.485 14.0744 51.8319 12.7695 53.4937 12.7695C53.8083 12.7692 54.1209 12.8169 54.42 12.9107L54.4243 9.41338C53.5163 9.30043 52.5939 9.36992 51.7152 9.61747C50.8365 9.86502 50.0207 10.2852 49.319 10.8516C48.7043 11.366 48.1874 11.9798 47.7918 12.6653C47.6412 12.9153 47.0732 13.9198 47.0044 15.5502C46.9611 16.4755 47.2497 17.4342 47.3873 17.8305V17.8388C47.4738 18.0721 47.8091 18.8683 48.3555 19.5395C48.7962 20.078 49.3168 20.5509 49.9005 20.9432V20.9349L49.9092 20.9432C51.6359 22.0732 53.5504 21.999 53.5504 21.999C53.8818 21.9861 54.992 21.999 56.2527 21.4236C57.651 20.7857 58.4471 19.8354 58.4471 19.8354C58.9557 19.2675 59.3601 18.6204 59.6429 17.9217C59.9657 17.1047 60.0734 16.1247 60.0734 15.7331V8.68675C60.1167 8.71175 60.693 9.07881 60.693 9.07881C60.693 9.07881 61.5232 9.59129 62.8186 9.92502C63.7479 10.1625 65 10.2125 65 10.2125V6.80268C64.5613 6.84851 63.6705 6.71518 62.7584 6.27729Z" fill="#0F1113"/>
<path fill-rule="evenodd" clip-rule="evenodd" d="M95.877 2.06018C96.9436 2.01151 97.2842 2 100 2C102.716 2 103.056 2.01151 104.123 2.06018C105.187 2.10873 105.914 2.27778 106.55 2.52501C107.208 2.78053 107.766 3.12245 108.322 3.67839C108.878 4.23435 109.219 4.79203 109.475 5.44958C109.722 6.08569 109.891 6.81259 109.94 7.87701C109.988 8.94362 110 9.28416 110 12C110 14.7158 109.988 15.0564 109.94 16.123C109.891 17.1874 109.722 17.9143 109.475 18.5504C109.219 19.208 108.878 19.7656 108.322 20.3215C107.766 20.8775 107.208 21.2195 106.55 21.475C105.914 21.7222 105.187 21.8913 104.123 21.9398C103.056 21.9885 102.716 22 100 22C97.2842 22 96.9436 21.9885 95.877 21.9398C94.8126 21.8913 94.0857 21.7222 93.4496 21.475C92.792 21.2195 92.2343 20.8775 91.6784 20.3215C91.1224 19.7656 90.7805 19.2079 90.525 18.5504C90.2777 17.9143 90.1087 17.1874 90.0601 16.123C90.0115 15.0564 90 14.7158 90 12C90 9.28413 90.0115 8.94362 90.0601 7.87701C90.1087 6.81259 90.2777 6.08569 90.525 5.44958C90.7805 4.79203 91.1224 4.23435 91.6784 3.67839C92.2343 3.12245 92.792 2.78053 93.4496 2.52501C94.0857 2.27778 94.8126 2.10873 95.877 2.06018ZM104.041 3.86007C102.986 3.81196 102.67 3.8018 100 3.8018C97.3299 3.8018 97.0136 3.81196 95.9591 3.86007C94.9842 3.90457 94.4546 4.06748 94.1022 4.20443C93.6355 4.38584 93.3024 4.60253 92.9524 4.95248C92.6025 5.30239 92.3858 5.63551 92.2044 6.10229C92.0675 6.45466 91.9046 6.98415 91.8601 7.95915C91.812 9.0136 91.8018 9.32989 91.8018 12C91.8018 14.6701 91.812 14.9864 91.8601 16.0408C91.9046 17.0158 92.0675 17.5454 92.2044 17.8977C92.3858 18.3645 92.6025 18.6976 92.9524 19.0475C93.3024 19.3975 93.6355 19.6142 94.1022 19.7955C94.4546 19.9325 94.9842 20.0955 95.9591 20.1399C97.0134 20.188 97.3297 20.1982 100 20.1982C102.67 20.1982 102.987 20.188 104.041 20.1399C105.016 20.0955 105.545 19.9325 105.898 19.7955C106.364 19.6142 106.698 19.3975 107.048 19.0475C107.397 18.6976 107.614 18.3645 107.796 17.8977C107.932 17.5454 108.095 17.0158 108.14 16.0408C108.188 14.9864 108.198 14.6701 108.198 12C108.198 9.32989 108.188 9.0136 108.14 7.95915C108.095 6.98415 107.932 6.45466 107.796 6.10229C107.614 5.63551 107.397 5.30239 107.048 4.95244C106.698 4.60253 106.364 4.38584 105.898 4.20443C105.545 4.06748 105.016 3.90457 104.041 3.86007ZM96.6666 12C96.6666 13.8409 98.159 15.3334 100 15.3334C101.841 15.3334 103.333 13.8409 103.333 12C103.333 10.159 101.841 8.66666 100 8.66666C98.159 8.66666 96.6666 10.159 96.6666 12ZM94.8648 12C94.8648 9.16393 97.1639 6.86487 100 6.86487C102.836 6.86487 105.135 9.16393 105.135 12C105.135 14.8361 102.836 17.1351 100 17.1351C97.1639 17.1351 94.8648 14.8361 94.8648 12ZM105.338 7.86196C106.001 7.86196 106.538 7.32473 106.538 6.66198C106.538 5.99923 106.001 5.462 105.338 5.462C104.675 5.462 104.138 5.99923 104.138 6.66198C104.138 7.32473 104.675 7.86196 105.338 7.86196Z" fill="#0F1113"/>
<path d="M152.721 3.14513L134.93 10.4988C133.729 10.9657 133.729 11.7828 134.712 12.0163L139.187 13.5337L140.933 19.1365C141.151 19.7202 141.042 19.9536 141.588 19.9536C142.025 19.9536 142.243 19.7202 142.461 19.4867C142.57 19.37 143.553 18.3195 144.644 17.1522L149.229 20.7707C150.102 21.2376 150.648 21.0042 150.866 19.9536L153.922 4.66256C154.25 3.37858 153.486 2.67823 152.721 3.14513ZM150.429 6.6469L141.916 14.9344L141.588 18.7864L139.842 13.1835L149.884 6.41345C150.32 6.06327 150.757 6.29672 150.429 6.6469Z" fill="#0F1113"/>
<path fill-rule="evenodd" clip-rule="evenodd" d="M197.582 7.2003C197.352 6.33422 196.674 5.65211 195.814 5.42063C194.254 5 188 5 188 5C188 5 181.746 5 180.186 5.42063C179.326 5.65215 178.648 6.33422 178.418 7.2003C178 8.77014 178 12.0455 178 12.0455C178 12.0455 178 15.3207 178.418 16.8906C178.648 17.7567 179.326 18.4104 180.186 18.6419C181.746 19.0625 188 19.0625 188 19.0625C188 19.0625 194.254 19.0625 195.814 18.6419C196.674 18.4104 197.352 17.7567 197.582 16.8906C198 15.3207 198 12.0455 198 12.0455C198 12.0455 198 8.77014 197.582 7.2003ZM185.955 15.0192V9.07172L191.182 12.0455L185.955 15.0192Z" fill="#0F1113"/>
</svg>
