<svg width="420" height="61" viewBox="0 0 420 61" fill="none" xmlns="http://www.w3.org/2000/svg">
<rect width="204.851" height="61" rx="10" fill="#0F1113"/>
<path d="M31.1166 29.4738L14.9619 46.6201C14.9625 46.6237 14.9637 46.6267 14.9643 46.6302C15.4598 48.492 17.1603 49.8629 19.1785 49.8629C19.9853 49.8629 20.7428 49.6448 21.3924 49.2619L21.444 49.2317L39.6282 38.7387L31.1166 29.4738Z" fill="#EB3131"/>
<path d="M47.4607 26.5541L47.4452 26.5434L39.5946 21.9924L30.75 29.8627L39.6254 38.7369L47.4346 34.2311C48.8037 33.492 49.7331 32.0486 49.7331 30.3842C49.7331 28.7318 48.8162 27.2956 47.4607 26.5541Z" fill="#F6B60B"/>
<path d="M14.9616 14.0771C14.8645 14.4352 14.8135 14.8103 14.8135 15.1998V45.4982C14.8135 45.887 14.8639 46.2633 14.9622 46.6202L31.6729 29.9125L14.9616 14.0771Z" fill="#5778C5"/>
<path d="M31.2364 30.3487L39.598 21.9895L21.4344 11.4586C20.7742 11.0631 20.0037 10.8349 19.1792 10.8349C17.1609 10.8349 15.4581 12.2083 14.9625 14.0724C14.9619 14.0742 14.9619 14.0754 14.9619 14.0771L31.2364 30.3487Z" fill="#3BAD49"/>
<path d="M162.266 45.6742H165.098V26.7047H162.266V45.6742ZM187.769 33.5379L184.523 41.7621H184.426L181.058 33.5379H178.008L183.059 45.0327L180.179 51.4267H183.134L190.918 33.5379H187.769ZM171.712 43.5196C170.783 43.5196 169.49 43.056 169.49 41.9085C169.49 40.4444 171.102 39.8831 172.492 39.8831C173.738 39.8831 174.322 40.1515 175.079 40.518C174.859 42.2749 173.346 43.5196 171.712 43.5196ZM172.053 33.1229C170.003 33.1229 167.88 34.0262 167.002 36.0274L169.515 37.0765C170.052 36.0274 171.052 35.6853 172.102 35.6853C173.566 35.6853 175.055 36.5644 175.079 38.1262V38.3212C174.566 38.0284 173.469 37.5892 172.126 37.5892C169.418 37.5892 166.659 39.0775 166.659 41.8598C166.659 44.398 168.88 46.0333 171.369 46.0333C173.273 46.0333 174.322 45.1792 174.982 44.1787H175.079V45.6427H177.812V38.3698C177.812 35.0025 175.299 33.1229 172.053 33.1229ZM154.555 35.8471H150.527V29.3448H154.555C156.671 29.3448 157.873 31.0974 157.873 32.5959C157.873 34.066 156.671 35.8471 154.555 35.8471ZM154.482 26.7047H147.697V45.6742H150.527V38.4872H154.482C157.62 38.4872 160.705 36.2152 160.705 32.5959C160.705 28.9767 157.62 26.7047 154.482 26.7047ZM117.486 43.5231C115.53 43.5231 113.892 41.8853 113.892 39.6359C113.892 37.3628 115.53 35.7002 117.486 35.7002C119.417 35.7002 120.932 37.3628 120.932 39.6359C120.932 41.8853 119.417 43.5231 117.486 43.5231ZM120.737 34.6001H120.639C120.004 33.8424 118.781 33.1579 117.241 33.1579C114.014 33.1579 111.056 35.9935 111.056 39.6359C111.056 43.254 114.014 46.0653 117.241 46.0653C118.781 46.0653 120.004 45.3807 120.639 44.5989H120.737V45.5277C120.737 47.9972 119.417 49.3172 117.29 49.3172C115.554 49.3172 114.479 48.07 114.038 47.019L111.57 48.0457C112.279 49.7569 114.161 51.8594 117.29 51.8594C120.615 51.8594 123.426 49.9033 123.426 45.1365V33.5491H120.737V34.6001ZM125.382 45.6742H128.217V26.7041H125.382V45.6742ZM132.398 39.416C132.324 36.9223 134.329 35.6515 135.771 35.6515C136.896 35.6515 137.849 36.2134 138.167 37.0208L132.398 39.416ZM141.198 37.265C140.661 35.8222 139.022 33.1579 135.673 33.1579C132.349 33.1579 129.586 35.7736 129.586 39.6116C129.586 43.2298 132.324 46.0653 135.991 46.0653C138.95 46.0653 140.661 44.2563 141.37 43.2053L139.17 41.7383C138.437 42.8141 137.434 43.5231 135.991 43.5231C134.549 43.5231 133.522 42.8628 132.862 41.5676L141.491 37.9982L141.198 37.265ZM72.447 35.1382V37.876H78.9985C78.8029 39.416 78.2895 40.5404 77.5072 41.3228C76.5541 42.2765 75.0628 43.3275 72.447 43.3275C68.4133 43.3275 65.26 40.0763 65.26 36.0427C65.26 32.0091 68.4133 28.7574 72.447 28.7574C74.6229 28.7574 76.2114 29.6133 77.385 30.7134L79.3162 28.7823C77.6785 27.2174 75.5025 26.0196 72.447 26.0196C66.922 26.0196 62.2773 30.5178 62.2773 36.0427C62.2773 41.5676 66.922 46.0653 72.447 46.0653C75.4297 46.0653 77.6785 45.088 79.4384 43.254C81.2474 41.445 81.8099 38.9027 81.8099 36.8495C81.8099 36.2134 81.7612 35.6272 81.6629 35.1382H72.447ZM89.2583 43.5231C87.3022 43.5231 85.6153 41.9096 85.6153 39.6116C85.6153 37.2892 87.3022 35.7002 89.2583 35.7002C91.2137 35.7002 92.9006 37.2892 92.9006 39.6116C92.9006 41.9096 91.2137 43.5231 89.2583 43.5231ZM89.2583 33.1579C85.6888 33.1579 82.7796 35.8714 82.7796 39.6116C82.7796 43.3275 85.6888 46.0653 89.2583 46.0653C92.8271 46.0653 95.7363 43.3275 95.7363 39.6116C95.7363 35.8714 92.8271 33.1579 89.2583 33.1579ZM103.39 43.5231C101.435 43.5231 99.7479 41.9096 99.7479 39.6116C99.7479 37.2892 101.435 35.7002 103.39 35.7002C105.346 35.7002 107.033 37.2892 107.033 39.6116C107.033 41.9096 105.346 43.5231 103.39 43.5231ZM103.39 33.1579C99.8209 33.1579 96.9123 35.8714 96.9123 39.6116C96.9123 43.3275 99.8209 46.0653 103.39 46.0653C106.959 46.0653 109.868 43.3275 109.868 39.6116C109.868 35.8714 106.959 33.1579 103.39 33.1579Z" fill="white"/>
<path d="M66.0019 15.2755C66.0197 16.7158 65.7311 17.8775 65.1382 18.7596H69.7408V11.8921H66.0019V15.2755ZM63.9036 21.8104H62.7852V18.7596H63.6754C64.4637 18.0803 64.849 16.9197 64.8331 15.2755V10.7736H70.9115V18.7596H71.9282V21.8104H70.8091V19.8781H63.9036V21.8104Z" fill="white"/>
<path d="M66.0023 15.2754L65.8506 15.2773L65.8518 15.3999C65.8512 16.7627 65.5666 17.851 65.0123 18.6748L64.8536 18.9113H69.8929V11.7403H65.8506V15.2767V15.2773L66.0023 15.2754H66.154V12.0438H69.5895V18.6078H65.1386V18.7596L65.2644 18.8438C65.8612 17.9558 66.1553 16.8035 66.1553 15.3999L66.154 15.2736L66.0023 15.2754H66.154H66.0023ZM63.904 21.8103V21.6586H62.9373V18.9113H63.6758H63.7321L63.7747 18.8746C64.595 18.1669 64.9858 16.9879 64.9858 15.375L64.9852 15.2742V15.2754V10.9253H70.7601V18.9113H71.7768V21.6586H70.9612V19.8781V19.7263H63.7523V21.8103H63.904V21.6586V21.8103H64.0558V20.0298H70.6577V21.8103V21.9621H71.9286H72.0803V18.6078H71.0636V10.6218H64.6817V15.2761V15.2767L64.6823 15.375C64.6817 16.9452 64.3011 18.0223 63.5767 18.644L63.6758 18.7596V18.6078H62.7855H62.6338V21.9621H63.904H64.0558V21.8103H63.904Z" fill="white"/>
<path d="M75.2401 17.9392C75.9146 18.6215 76.7386 18.9623 77.7136 18.9623C78.6886 18.9623 79.5137 18.6215 80.1864 17.9392C80.8611 17.257 81.1988 16.3849 81.1988 15.3258C81.1988 14.2666 80.8611 13.3946 80.1864 12.7123C79.5137 12.0301 78.6886 11.6893 77.7136 11.6893C76.7386 11.6893 75.9146 12.0301 75.2401 12.7123C74.5673 13.3946 74.2295 14.2666 74.2295 15.3258C74.2295 16.3849 74.5673 17.257 75.2401 17.9392ZM81.052 18.7014C80.1568 19.6219 79.0443 20.0814 77.7136 20.0814C76.3829 20.0814 75.2697 19.6219 74.3764 18.7014C73.4814 17.782 73.0352 16.6566 73.0352 15.3258C73.0352 13.995 73.4814 12.8694 74.3764 11.9501C75.2697 11.0295 76.3829 10.5696 77.7136 10.5696C79.0365 10.5696 80.1468 11.032 81.0459 11.9561C81.9439 12.8802 82.3932 14.0034 82.3932 15.3258C82.3932 16.6566 81.9457 17.782 81.052 18.7014Z" fill="white"/>
<path d="M75.2405 17.9394L75.1326 18.046C75.8314 18.7556 76.7033 19.116 77.714 19.1142C78.724 19.116 79.5977 18.7556 80.2947 18.046C80.9983 17.3359 81.3522 16.4171 81.351 15.3259C81.3522 14.2348 80.9983 13.316 80.2947 12.6058C79.5977 11.8963 78.724 11.5359 77.714 11.5377C76.7033 11.5359 75.8314 11.8963 75.1326 12.6058C74.4308 13.316 74.0769 14.2348 74.0782 15.3259C74.0769 16.4171 74.4308 17.3359 75.1326 18.046L75.2405 17.9394L75.349 17.8327C74.7051 17.1776 74.3833 16.3537 74.3816 15.3259C74.3833 14.2982 74.7051 13.4742 75.349 12.8192H75.3484C75.998 12.1643 76.7738 11.843 77.714 11.8412C78.6535 11.843 79.4311 12.1643 80.0789 12.8192L80.0813 12.8216L80.0789 12.8192C80.7244 13.4742 81.0458 14.2982 81.0475 15.3259C81.0458 16.3537 80.7244 17.1776 80.0789 17.8327C79.4311 18.4876 78.6535 18.8088 77.714 18.8107C76.7738 18.8088 75.998 18.4876 75.3484 17.8327L75.2405 17.9394ZM81.0523 18.7016L80.9438 18.5961C80.0742 19.4876 79.0097 19.9279 77.714 19.9298C76.4177 19.9279 75.3537 19.4876 74.4853 18.5961C73.6175 17.7016 73.1889 16.6229 73.1873 15.3259C73.1889 14.029 73.6175 12.9503 74.4853 12.0558C75.3537 11.1643 76.4177 10.7233 77.714 10.7215C79.002 10.7233 80.0636 11.1661 80.9379 12.0623C81.8092 12.9609 82.2402 14.038 82.2418 15.3259C82.2402 16.6229 81.8104 17.7016 80.9438 18.5961L81.0523 18.7016L81.1613 18.807C82.0813 17.8623 82.5465 16.6904 82.5453 15.3259C82.5465 13.9692 82.0801 12.7997 81.1554 11.8507C80.2306 10.8981 79.0726 10.4163 77.714 10.418C76.3484 10.4163 75.1865 10.8958 74.2678 11.8448V11.8442C73.346 12.7896 72.8826 13.9615 72.8838 15.3259C72.8826 16.6904 73.346 17.8623 74.2678 18.8076V18.807C75.1865 19.756 76.3484 20.2345 77.714 20.2332C79.0791 20.2345 80.2408 19.756 81.1613 18.807L81.0523 18.7016Z" fill="white"/>
<path d="M88.2818 20.0814C86.9423 20.0814 85.8191 19.628 84.9121 18.7204C84.0035 17.8136 83.5518 16.6819 83.5518 15.3258C83.5518 13.9695 84.0035 12.838 84.9121 11.9312C85.8191 11.0236 86.9423 10.5696 88.2818 10.5696C89.654 10.5696 90.7696 11.0658 91.6261 12.0574L90.8111 12.8463C90.1935 12.0746 89.3487 11.6893 88.2818 11.6893C87.289 11.6893 86.4514 12.0242 85.7698 12.694C85.0869 13.3638 84.7461 14.2411 84.7461 15.3258C84.7461 16.4104 85.0869 17.2884 85.7698 17.9576C86.4514 18.6274 87.289 18.9623 88.2818 18.9623C89.3754 18.9623 90.3073 18.5218 91.0795 17.6404L91.8928 18.4536C91.4768 18.9539 90.9563 19.3504 90.3279 19.6421C89.7014 19.9349 89.0181 20.0814 88.2818 20.0814Z" fill="white"/>
<path d="M88.2822 20.0815V19.9298C86.9765 19.9279 85.9006 19.4923 85.0198 18.6133C84.1395 17.733 83.7051 16.6484 83.7039 15.3259C83.7051 14.0035 84.1395 12.9189 85.0198 12.0386C85.9006 11.159 86.9765 10.7233 88.2822 10.7215C89.6183 10.7239 90.6805 11.1969 91.5114 12.1565L91.6264 12.0576L91.521 11.9485L90.706 12.738L90.8114 12.8465L90.93 12.7516C90.2863 11.9444 89.3848 11.5354 88.2822 11.5377C87.2549 11.5365 86.3712 11.8893 85.6641 12.5856C84.9498 13.2846 84.5929 14.2103 84.5948 15.3259C84.5929 16.4415 84.9498 17.3685 85.6641 18.0662C86.3712 18.7626 87.2549 19.1154 88.2822 19.1142C89.4172 19.116 90.4007 18.65 91.1937 17.7407L91.0799 17.6406L90.9726 17.7479L91.7859 18.5611L91.8932 18.4538L91.7764 18.3573C91.3746 18.8397 90.8743 19.2214 90.2643 19.5047C89.6579 19.788 88.9989 19.9292 88.2822 19.9298V20.0815V20.2332C89.0385 20.2332 89.7452 20.0827 90.3923 19.7798C91.0397 19.4798 91.5791 19.0691 92.0099 18.551L92.0982 18.445L91.1873 17.5333L91.0723 17.4183L90.9656 17.5404C90.2151 18.3946 89.3344 18.8088 88.2822 18.8107C87.3232 18.8088 86.5331 18.4923 85.8768 17.8492H85.8764C85.2243 17.209 84.8995 16.3798 84.8982 15.3259C84.8995 14.2721 85.2243 13.444 85.8764 12.8026H85.8768C86.5331 12.1595 87.3232 11.843 88.2822 11.8412C89.313 11.8436 90.1007 12.2052 90.6929 12.9413L90.7972 13.0718L91.7319 12.1667L91.8351 12.067L91.7415 11.9586C90.86 10.9344 89.6905 10.4163 88.2822 10.418C86.9082 10.4168 85.7375 10.8893 84.8052 11.824C83.8681 12.757 83.3986 13.9366 83.4004 15.3259C83.3986 16.7153 83.8681 17.8949 84.8052 18.8284C85.7375 19.7625 86.9082 20.2345 88.2822 20.2332V20.0815Z" fill="white"/>
<path d="M96.6245 19.8782H95.454V11.8922H92.9111V10.7737H99.1674V11.8922H96.6245V19.8782Z" fill="white"/>
<path d="M96.6249 19.8781V19.7264H95.6061V11.7404H93.0632V10.9254H99.0161V11.7404H96.4732V19.8781H96.6249V19.7264V19.8781H96.7767V12.0439H99.3195V10.7737V10.6219H92.7598V11.8921V12.0439H95.3026V20.0299H96.6249H96.7767V19.8781H96.6249Z" fill="white"/>
<path d="M107.2 10.7735L103.755 18.4536C103.279 19.539 102.573 20.0814 101.632 20.0814C101.352 20.0814 101.051 20.0138 100.728 19.878L101.033 18.7969C101.229 18.9076 101.432 18.9623 101.644 18.9623C101.915 18.9623 102.125 18.9095 102.274 18.804C102.422 18.6979 102.559 18.504 102.687 18.2248L103.018 17.4993L99.9531 10.7735H101.327L103.577 15.9997H103.628L105.826 10.7735H107.2Z" fill="white"/>
<path d="M107.2 10.7737L107.061 10.7115L103.616 18.3921L103.615 18.3934C103.147 19.4454 102.507 19.9244 101.631 19.9297C101.376 19.9297 101.095 19.8681 100.786 19.7382L100.728 19.8781L100.874 19.9196L101.179 18.8384L101.033 18.797L100.959 18.9292C101.174 19.0513 101.405 19.1147 101.643 19.1141C101.933 19.1141 102.176 19.059 102.362 18.9273C102.544 18.7952 102.691 18.58 102.825 18.2884L103.155 17.5629L103.184 17.4994L100.189 10.9254H101.227L103.477 16.1515H103.627H103.728L105.926 10.9254H107.2V10.7737L107.061 10.7115L107.2 10.7737V10.6219H105.826H105.725L103.487 15.9412L103.627 15.9998V15.8481H103.577V15.9998L103.716 15.94L101.426 10.6219H99.9528H99.7168L102.85 17.4994L102.548 18.1621C102.428 18.4283 102.299 18.6002 102.185 18.6801C102.074 18.7603 101.896 18.8113 101.643 18.8106C101.458 18.8106 101.283 18.7638 101.107 18.6648L100.939 18.57L100.582 19.8367L100.545 19.9659L100.669 20.018C101.006 20.1596 101.327 20.2332 101.631 20.2332C102.637 20.2379 103.41 19.6322 103.893 18.5149L103.893 18.516L107.434 10.6219H107.2V10.7737Z" fill="white"/>
<path d="M108.524 19.8782V10.7737H115.111V19.8782H113.941V11.8922H109.693V19.8782H108.524Z" fill="white"/>
<path d="M108.525 19.8781H108.677V10.9254H114.96V19.7264H114.093V11.7404H109.542V19.7264H108.525V19.8781H108.677H108.525V20.0299H109.694H109.845V12.0439H113.79V20.0299H115.112H115.264V10.6219H108.373V20.0299H108.525V19.8781Z" fill="white"/>
<path d="M117.196 19.8782V10.7737H118.366V14.6769H122.918V10.7737H124.089V19.8782H122.918V15.7705H118.366V19.8782H117.196Z" fill="white"/>
<path d="M117.197 19.8781H117.348V10.9254H118.214V14.8286H123.07V10.9254H123.937V19.7264H123.07V15.6188H118.214V19.7264H117.197V19.8781H117.348H117.197V20.0299H118.366H118.518V15.9222H122.767V20.0299H124.089H124.241V10.6219H122.918H122.767V14.5252H118.518V10.6219H117.197H117.045V20.0299H117.197V19.8781Z" fill="white"/>
<path d="M127.807 17.9392C128.482 18.6215 129.306 18.9623 130.281 18.9623C131.256 18.9623 132.081 18.6215 132.754 17.9392C133.428 17.257 133.766 16.3849 133.766 15.3258C133.766 14.2666 133.428 13.3946 132.754 12.7123C132.081 12.0301 131.256 11.6893 130.281 11.6893C129.306 11.6893 128.482 12.0301 127.807 12.7123C127.135 13.3946 126.797 14.2666 126.797 15.3258C126.797 16.3849 127.135 17.257 127.807 17.9392ZM133.619 18.7014C132.725 19.6219 131.612 20.0814 130.281 20.0814C128.95 20.0814 127.838 19.6219 126.944 18.7014C126.049 17.782 125.603 16.6566 125.603 15.3258C125.603 13.995 126.049 12.8694 126.944 11.9501C127.838 11.0295 128.95 10.5696 130.281 10.5696C131.605 10.5696 132.714 11.032 133.613 11.9561C134.511 12.8802 134.961 14.0034 134.961 15.3258C134.961 16.6566 134.513 17.782 133.619 18.7014Z" fill="white"/>
<path d="M127.808 17.9394L127.7 18.046C128.4 18.7556 129.271 19.116 130.281 19.1142C131.292 19.116 132.165 18.7556 132.863 18.046C133.566 17.3359 133.92 16.4171 133.918 15.3259C133.92 14.2348 133.566 13.316 132.863 12.6058C132.165 11.8963 131.292 11.5359 130.281 11.5377C129.271 11.5359 128.4 11.8963 127.7 12.6058C126.998 13.316 126.644 14.2348 126.646 15.3259C126.644 16.4171 126.998 17.3359 127.7 18.046L127.808 17.9394L127.916 17.8327C127.273 17.1776 126.951 16.3537 126.949 15.3259C126.951 14.2982 127.273 13.4742 127.916 12.8192C128.566 12.1643 129.342 11.843 130.281 11.8412C131.221 11.843 131.999 12.1643 132.646 12.8192L132.651 12.824L132.646 12.8192C133.292 13.4742 133.614 14.2982 133.615 15.3259C133.614 16.3537 133.292 17.1776 132.646 17.8327C131.999 18.4876 131.221 18.8088 130.281 18.8107C129.342 18.8088 128.566 18.4876 127.916 17.8327L127.808 17.9394ZM133.62 18.7016L133.511 18.5961C132.642 19.4876 131.577 19.9279 130.281 19.9298C128.986 19.9279 127.921 19.4876 127.053 18.5961L127.049 18.5914L127.053 18.5961C126.185 17.7016 125.756 16.6229 125.755 15.3259C125.756 14.029 126.185 12.9503 127.053 12.0558C127.921 11.1643 128.986 10.7233 130.281 10.7215C131.57 10.7233 132.631 11.1661 133.505 12.0623C134.377 12.9609 134.808 14.038 134.809 15.3259C134.808 16.6229 134.378 17.7016 133.511 18.5961L133.62 18.7016L133.729 18.807C134.649 17.8623 135.114 16.6904 135.113 15.3259C135.114 13.9692 134.648 12.7997 133.723 11.8507C132.798 10.8981 131.64 10.4163 130.281 10.418C128.916 10.4163 127.755 10.8958 126.835 11.8448V11.8442C125.914 12.7896 125.45 13.9615 125.451 15.3259C125.45 16.6904 125.914 17.8623 126.835 18.8076V18.807C127.755 19.756 128.916 20.2345 130.281 20.2332C131.647 20.2345 132.808 19.756 133.729 18.807L133.62 18.7016Z" fill="white"/>
<path d="M140.914 18.7597H143.267C143.716 18.7597 144.08 18.6026 144.361 18.2879C144.64 17.9755 144.78 17.6316 144.78 17.2582C144.78 16.8854 144.636 16.5446 144.347 16.2352C144.061 15.9258 143.681 15.7705 143.215 15.7705H140.914V18.7597ZM140.914 14.6769H143.038C143.479 14.6769 143.833 14.5317 144.1 14.2383C144.367 13.946 144.501 13.6266 144.501 13.2786C144.501 12.9313 144.372 12.6123 144.112 12.3256C143.854 12.0368 143.513 11.8922 143.089 11.8922H140.914V14.6769ZM139.745 19.8782V10.7737H143.038C143.75 10.7737 144.367 11.0097 144.888 11.479C145.41 11.9503 145.671 12.5412 145.671 13.2531C145.671 13.6852 145.558 14.0669 145.332 14.3977C145.109 14.7284 144.81 14.9786 144.437 15.1481V15.1985C144.885 15.3508 145.255 15.6139 145.543 15.9868C145.83 16.3602 145.976 16.793 145.976 17.2843C145.976 18.03 145.702 18.6488 145.155 19.1403C144.608 19.6322 143.962 19.8782 143.215 19.8782H139.745Z" fill="white"/>
<path d="M140.913 18.7596V18.9114H143.266C143.75 18.9132 144.168 18.7354 144.473 18.3891C144.773 18.0554 144.933 17.6701 144.931 17.2582C144.933 16.8457 144.767 16.4621 144.458 16.1315C144.143 15.7905 143.714 15.6169 143.215 15.6188H140.761V18.9114H140.913V18.7596H141.065V15.9222H143.215C143.649 15.9239 143.975 16.0615 144.236 16.3383C144.503 16.6275 144.626 16.9257 144.628 17.2582C144.626 17.5931 144.506 17.8955 144.247 18.187C143.993 18.4692 143.681 18.6055 143.266 18.6079H140.913V18.7596H141.065H140.913ZM140.913 14.6769V14.8286H143.037C143.511 14.8303 143.917 14.6667 144.212 14.3402V14.3408C144.499 14.0277 144.652 13.6661 144.652 13.2786C144.652 12.8933 144.505 12.5329 144.224 12.2235V12.2241C143.94 11.9028 143.546 11.7386 143.089 11.7404H140.761V14.8286H140.913V14.6769H141.065V12.0439H143.089C143.479 12.0463 143.767 12.1707 143.998 12.4263L143.999 12.4273L143.998 12.4269C144.236 12.6924 144.347 12.9698 144.348 13.2786C144.347 13.5862 144.233 13.8648 143.987 14.1356V14.1362C143.747 14.3965 143.445 14.5233 143.037 14.5252H140.913V14.6769H141.065H140.913ZM139.745 19.8781H139.896V10.9254H143.037C143.716 10.9266 144.289 11.1459 144.785 11.5917C145.279 12.0386 145.517 12.5786 145.518 13.2531C145.518 13.6592 145.414 14.0071 145.207 14.3123C144.998 14.6206 144.723 14.8505 144.373 15.01L144.285 15.0503V15.1984V15.3069L144.386 15.3418C144.81 15.4866 145.151 15.7295 145.423 16.0799L145.424 16.0816L145.423 16.0793C145.69 16.4278 145.823 16.8225 145.823 17.2843C145.822 17.9932 145.57 18.5604 145.052 19.0276C144.53 19.4953 143.928 19.7252 143.215 19.7264H139.745V19.8781H139.896H139.745V20.0299H143.215C143.995 20.0311 144.684 19.769 145.256 19.2528C145.832 18.7376 146.128 18.0673 146.127 17.2843C146.128 16.7633 145.97 16.2926 145.662 15.8943L145.661 15.8925L145.662 15.8937C145.357 15.499 144.96 15.2156 144.485 15.055L144.436 15.1984H144.588V15.1481H144.436L144.499 15.2861C144.895 15.1066 145.219 14.8368 145.458 14.4824V14.483C145.7 14.1268 145.822 13.7112 145.822 13.2531C145.823 12.5044 145.541 11.8619 144.989 11.3664L144.986 11.3635L144.989 11.3664C144.442 10.8726 143.782 10.6207 143.037 10.6219H139.593V20.0299H139.745V19.8781Z" fill="white"/>
<rect x="236.851" width="182.488" height="61" rx="10" fill="#0F1113"/>
<path d="M274.624 30.9593C274.64 29.6864 274.978 28.4384 275.606 27.3313C276.235 26.2243 277.133 25.2941 278.217 24.6274C277.528 23.6435 276.62 22.8339 275.563 22.2627C274.506 21.6915 273.331 21.3745 272.131 21.3369C269.57 21.0682 267.087 22.8693 265.782 22.8693C264.452 22.8693 262.443 21.3636 260.279 21.4082C258.88 21.4534 257.516 21.8603 256.321 22.5894C255.125 23.3184 254.139 24.3447 253.458 25.5682C250.509 30.6745 252.709 38.1791 255.534 42.3067C256.948 44.3278 258.6 46.5855 260.761 46.5055C262.876 46.4177 263.666 45.1566 266.22 45.1566C268.749 45.1566 269.491 46.5055 271.696 46.4546C273.966 46.4177 275.396 44.4244 276.76 42.3841C277.775 40.944 278.557 39.3523 279.075 37.668C277.757 37.1103 276.631 36.1767 275.84 34.9837C275.048 33.7907 274.625 32.3911 274.624 30.9593Z" fill="white"/>
<path d="M270.458 18.6221C271.695 17.1365 272.305 15.2269 272.157 13.299C270.267 13.4975 268.52 14.4012 267.266 15.8299C266.653 16.5278 266.183 17.3398 265.884 18.2193C265.584 19.0989 265.461 20.0288 265.522 20.956C266.467 20.9657 267.403 20.7607 268.258 20.3565C269.113 19.9522 269.865 19.3592 270.458 18.6221Z" fill="white"/>
<path d="M301.362 41.388H294.143L292.41 46.5066H289.353L296.19 27.5691H299.366L306.203 46.5066H303.094L301.362 41.388ZM294.891 39.026H300.613L297.792 30.7189H297.713L294.891 39.026Z" fill="white"/>
<path d="M320.97 39.6035C320.97 43.894 318.673 46.6506 315.208 46.6506C314.33 46.6966 313.457 46.4943 312.688 46.0671C311.92 45.6399 311.288 45.005 310.864 44.235H310.798V51.0737H307.964V32.6993H310.707V34.9957H310.759C311.203 34.2294 311.846 33.5978 312.62 33.168C313.394 32.7382 314.271 32.5263 315.156 32.5548C318.66 32.5548 320.97 35.3248 320.97 39.6035ZM318.057 39.6035C318.057 36.8082 316.612 34.9704 314.408 34.9704C312.243 34.9704 310.786 36.8469 310.786 39.6035C310.786 42.3854 312.243 44.2485 314.408 44.2485C316.612 44.2485 318.057 42.4241 318.057 39.6035Z" fill="white"/>
<path d="M336.166 39.6035C336.166 43.894 333.869 46.6506 330.404 46.6506C329.526 46.6966 328.653 46.4943 327.885 46.0671C327.116 45.6399 326.484 45.005 326.06 44.235H325.994V51.0737H323.16V32.6993H325.903V34.9957H325.955C326.399 34.2294 327.042 33.5978 327.816 33.168C328.591 32.7382 329.467 32.5263 330.352 32.5548C333.856 32.5548 336.166 35.3248 336.166 39.6035ZM333.253 39.6035C333.253 36.8082 331.808 34.9704 329.604 34.9704C327.439 34.9704 325.982 36.8469 325.982 39.6035C325.982 42.3854 327.439 44.2485 329.604 44.2485C331.808 44.2485 333.253 42.4241 333.253 39.6035H333.253Z" fill="white"/>
<path d="M346.21 41.2302C346.42 43.1081 348.244 44.3412 350.737 44.3412C353.126 44.3412 354.844 43.1081 354.844 41.4148C354.844 39.9449 353.808 39.0647 351.354 38.4616L348.899 37.8703C345.422 37.0304 343.808 35.4041 343.808 32.7651C343.808 29.4977 346.655 27.2534 350.698 27.2534C354.7 27.2534 357.443 29.4977 357.536 32.7651H354.675C354.503 30.8753 352.941 29.7345 350.658 29.7345C348.375 29.7345 346.813 30.8887 346.813 32.5686C346.813 33.9074 347.811 34.6952 350.252 35.2983L352.338 35.8106C356.223 36.7295 357.838 38.2903 357.838 41.0603C357.838 44.6032 355.016 46.8222 350.527 46.8222C346.327 46.8222 343.492 44.6553 343.309 41.23L346.21 41.2302Z" fill="white"/>
<path d="M363.954 29.4322V32.6996H366.579V34.9439H363.954V42.5555C363.954 43.738 364.479 44.289 365.633 44.289C365.945 44.2836 366.256 44.2617 366.566 44.2235V46.4544C366.047 46.5513 365.519 46.5952 364.992 46.5854C362.196 46.5854 361.106 45.5355 361.106 42.8578V34.9439H359.099V32.6996H361.106V29.4322H363.954Z" fill="white"/>
<path d="M368.1 39.6038C368.1 35.2597 370.658 32.5298 374.648 32.5298C378.651 32.5298 381.198 35.2596 381.198 39.6038C381.198 43.9599 378.664 46.6778 374.648 46.6778C370.633 46.6778 368.1 43.9599 368.1 39.6038ZM378.31 39.6038C378.31 36.6238 376.944 34.865 374.648 34.865C372.351 34.865 370.987 36.6372 370.987 39.6038C370.987 42.5957 372.351 44.3412 374.648 44.3412C376.944 44.3412 378.31 42.5957 378.31 39.6038H378.31Z" fill="white"/>
<path d="M383.535 32.6992H386.238V35.0492H386.304C386.487 34.3152 386.917 33.6666 387.521 33.2123C388.126 32.7581 388.869 32.5258 389.625 32.5547C389.951 32.5536 390.277 32.589 390.596 32.6604V35.3113C390.183 35.1853 389.753 35.1275 389.322 35.1401C388.911 35.1234 388.5 35.1959 388.119 35.3528C387.738 35.5097 387.396 35.7472 387.115 36.049C386.835 36.3508 386.623 36.7097 386.494 37.1012C386.365 37.4926 386.323 37.9072 386.369 38.3166V46.5061H383.535L383.535 32.6992Z" fill="white"/>
<path d="M403.662 42.4513C403.28 44.9577 400.84 46.6778 397.717 46.6778C393.7 46.6778 391.207 43.9867 391.207 39.6693C391.207 35.3386 393.713 32.5298 397.597 32.5298C401.417 32.5298 403.82 35.1539 403.82 39.3402V40.3112H394.068V40.4825C394.023 40.9906 394.087 41.5025 394.255 41.9842C394.423 42.4658 394.691 42.9062 395.042 43.2761C395.394 43.646 395.82 43.9369 396.292 44.1295C396.764 44.3221 397.272 44.412 397.782 44.3933C398.452 44.456 399.124 44.3009 399.698 43.951C400.273 43.6011 400.719 43.0751 400.971 42.4513L403.662 42.4513ZM394.081 38.3305H400.984C401.009 37.8736 400.94 37.4164 400.781 36.9876C400.621 36.5587 400.374 36.1675 400.056 35.8385C399.738 35.5094 399.356 35.2497 398.933 35.0755C398.51 34.9013 398.055 34.8165 397.597 34.8263C397.136 34.8235 396.678 34.9122 396.251 35.0872C395.824 35.2622 395.436 35.52 395.109 35.8458C394.782 36.1716 394.523 36.5589 394.347 36.9853C394.17 37.4118 394.08 37.869 394.081 38.3305V38.3305Z" fill="white"/>
<path d="M292.876 17.1614H294.093C294.302 17.1875 294.515 17.1699 294.717 17.1098C294.919 17.0496 295.107 16.9482 295.268 16.8119C295.429 16.6757 295.561 16.5075 295.654 16.318C295.747 16.1285 295.799 15.9218 295.808 15.7109C295.808 14.8717 295.177 14.3296 294.106 14.3296C293.892 14.2996 293.673 14.3129 293.464 14.3688C293.254 14.4246 293.058 14.5218 292.887 14.6547C292.716 14.7875 292.573 14.9533 292.467 15.1423C292.361 15.3312 292.294 15.5395 292.27 15.7548H290.934C290.957 15.364 291.06 14.982 291.237 14.6328C291.414 14.2835 291.661 13.9745 291.963 13.7248C292.264 13.4752 292.614 13.2903 292.99 13.1817C293.367 13.0731 293.761 13.0431 294.149 13.0935C295.941 13.0935 297.202 14.0965 297.202 15.5404C297.207 16.0241 297.045 16.4946 296.744 16.8733C296.443 17.2521 296.021 17.5162 295.549 17.6216V17.7288C296.109 17.7537 296.636 17.9991 297.015 18.4114C297.395 18.8237 297.595 19.3694 297.573 19.9292C297.532 20.3316 297.41 20.7218 297.216 21.0767C297.022 21.4316 296.759 21.7442 296.443 21.9962C296.126 22.2482 295.762 22.4344 295.373 22.544C294.984 22.6536 294.576 22.6843 294.175 22.6345C293.772 22.6893 293.363 22.6626 292.971 22.5559C292.58 22.4492 292.213 22.2647 291.894 22.0135C291.575 21.7622 291.31 21.4493 291.115 21.0934C290.919 20.7375 290.798 20.3459 290.757 19.9419H292.114C292.195 20.8124 292.995 21.3739 294.175 21.3739C295.354 21.3739 296.124 20.7432 296.124 19.8541C296.124 18.9523 295.399 18.3968 294.131 18.3968H292.876V17.1614Z" fill="white"/>
<path d="M299.114 20.4715C299.114 19.2354 300.036 18.5228 301.668 18.4215L303.528 18.3143V17.7216C303.528 16.9963 303.05 16.5868 302.123 16.5868C301.366 16.5868 300.843 16.8645 300.691 17.35H299.379C299.518 16.1705 300.629 15.414 302.187 15.414C303.908 15.414 304.879 16.2711 304.879 17.7216V22.4135H303.573V21.4485H303.466C303.248 21.7946 302.943 22.0768 302.58 22.2663C302.218 22.4557 301.812 22.5455 301.403 22.5266C301.115 22.5566 300.824 22.5259 300.548 22.4364C300.272 22.3468 300.018 22.2006 299.803 22.0069C299.587 21.8133 299.414 21.5766 299.296 21.3122C299.177 21.0477 299.115 20.7613 299.114 20.4715ZM303.528 19.8847V19.3106L301.851 19.4179C300.906 19.4811 300.477 19.8028 300.477 20.4082C300.477 21.0262 301.013 21.3859 301.75 21.3859C301.966 21.4078 302.184 21.386 302.392 21.3218C302.599 21.2576 302.792 21.1524 302.958 21.0123C303.123 20.8722 303.26 20.7002 303.358 20.5065C303.456 20.3128 303.514 20.1014 303.528 19.8847Z" fill="white"/>
<path d="M308.476 16.6873V22.4135H307.121V15.5465H311.643V16.6872L308.476 16.6873Z" fill="white"/>
<path d="M319.855 18.9782C319.855 21.1599 318.752 22.5278 317.018 22.5278C316.593 22.5569 316.168 22.4637 315.793 22.2594C315.419 22.0551 315.111 21.748 314.905 21.3744H314.798V24.6977H313.442V15.5477H314.747V16.6825H314.848C315.058 16.2958 315.37 15.9746 315.75 15.7542C316.131 15.5338 316.565 15.4229 317.005 15.4338C318.752 15.4337 319.855 16.7956 319.855 18.9782ZM318.461 18.9782C318.461 17.5276 317.775 16.6512 316.626 16.6512C315.486 16.6512 314.772 17.5462 314.772 18.9841C314.772 20.4153 315.486 21.3111 316.62 21.3111C317.775 21.3111 318.461 20.4346 318.461 18.9782Z" fill="white"/>
<path d="M321.66 24.873V23.7062C321.807 23.7248 321.954 23.7333 322.102 23.7315C322.391 23.7529 322.677 23.6669 322.907 23.49C323.136 23.3131 323.292 23.0578 323.344 22.7731L323.446 22.4388L320.96 15.5465H322.436L324.157 21.0009H324.265L325.98 15.5465H327.417L324.857 22.6972C324.271 24.3681 323.621 24.9043 322.221 24.9043C322.108 24.9043 321.787 24.8916 321.66 24.873Z" fill="white"/>
<path d="M328.474 20.4649H329.823C329.955 21.0703 330.523 21.386 331.317 21.386C332.219 21.386 332.773 20.9884 332.773 20.3704C332.773 19.7084 332.276 19.3927 331.317 19.3927H330.289V18.3398H331.299C332.118 18.3398 332.535 18.0248 332.535 17.4507C332.535 16.9466 332.131 16.5616 331.299 16.5616C330.541 16.5616 329.987 16.8833 329.899 17.4254H328.593C328.69 16.8025 329.029 16.2428 329.535 15.8667C330.041 15.4906 330.674 15.3281 331.299 15.4141C332.931 15.4141 333.865 16.1521 333.865 17.3122C333.872 17.6353 333.769 17.9512 333.572 18.2071C333.374 18.4629 333.095 18.6433 332.781 18.7181V18.8253C333.155 18.8736 333.498 19.0576 333.746 19.3424C333.994 19.6272 334.128 19.993 334.124 20.3704C334.124 21.6758 333.013 22.5395 331.317 22.5395C329.817 22.5394 328.599 21.8522 328.474 20.4649Z" fill="white"/>
<path d="M336.075 22.4135V15.5465H337.419V20.2697H337.526L340.69 15.5465H342.034V22.4135H340.69V17.665H340.589L337.419 22.4135L336.075 22.4135Z" fill="white"/>
<path d="M349.435 16.6884H347.272V22.4146H345.915V16.6884H343.753V15.5477H349.435V16.6884Z" fill="white"/>
<path d="M356.735 20.5595C356.55 21.187 356.151 21.7298 355.607 22.0929C355.063 22.456 354.408 22.6164 353.758 22.5461C353.306 22.5581 352.856 22.4714 352.44 22.2922C352.025 22.1129 351.653 21.8454 351.352 21.5082C351.05 21.171 350.825 20.7721 350.693 20.3392C350.56 19.9064 350.524 19.45 350.586 19.0017C350.526 18.552 350.563 18.0946 350.695 17.6605C350.827 17.2263 351.05 16.8256 351.35 16.4854C351.651 16.1452 352.02 15.8735 352.435 15.6887C352.849 15.5038 353.298 15.4102 353.752 15.4141C355.663 15.4141 356.817 16.7195 356.817 18.8758V19.3487H351.968V19.4247C351.946 19.6767 351.978 19.9305 352.06 20.1696C352.143 20.4088 352.274 20.628 352.447 20.8133C352.619 20.9986 352.828 21.1458 353.061 21.2454C353.293 21.3451 353.544 21.395 353.797 21.3919C354.121 21.4306 354.449 21.3722 354.74 21.2239C355.03 21.0757 355.27 20.8444 355.429 20.5594L356.735 20.5595ZM351.968 18.3464H355.435C355.452 18.1161 355.421 17.8847 355.343 17.6671C355.266 17.4496 355.143 17.2506 354.984 17.0831C354.825 16.9156 354.633 16.7832 354.42 16.6944C354.206 16.6056 353.977 16.5624 353.746 16.5675C353.512 16.5643 353.279 16.6082 353.062 16.6964C352.844 16.7847 352.647 16.9156 352.481 17.0815C352.316 17.2473 352.185 17.4447 352.097 17.662C352.008 17.8792 351.965 18.112 351.968 18.3464H351.968Z" fill="white"/>
<path d="M362.48 15.5465H365.577C366.92 15.5465 367.708 16.2271 367.708 17.2926C367.71 17.6307 367.596 17.9593 367.385 18.2233C367.173 18.4874 366.878 18.6709 366.548 18.7432V18.8504C366.949 18.8757 367.325 19.0541 367.598 19.3487C367.871 19.6434 368.021 20.0317 368.016 20.4335C368.016 21.6316 367.115 22.4134 365.608 22.4134H362.48V15.5465ZM363.824 16.5868V18.3649H365.167C365.986 18.3649 366.378 18.0499 366.378 17.4691C366.378 16.9337 366.037 16.5867 365.318 16.5867L363.824 16.5868ZM363.824 19.3612V21.3732H365.431C366.232 21.3732 366.661 21.0195 366.661 20.3702C366.661 19.6829 366.175 19.3613 365.261 19.3613L363.824 19.3612Z" fill="white"/>
</svg>
